<svg xmlns="http://www.w3.org/2000/svg" viewBox="0 0 512 512" width="512" height="512" role="img" aria-label="AVQA logo">
  <defs>
    <linearGradient id="bg" x1="0" y1="0" x2="1" y2="1">
      <stop offset="0" stop-color="#0C0F1C"/>
      <stop offset="1" stop-color="#171B2D"/>
    </linearGradient>
    <linearGradient id="mark" x1="0" y1="0" x2="1" y2="1">
      <stop offset="0" stop-color="#9AA8FF"/>
      <stop offset="0.5" stop-color="#7C8CFF"/>
      <stop offset="1" stop-color="#5F6EF0"/>
    </linearGradient>
    <linearGradient id="mark2" x1="0" y1="1" x2="1" y2="0">
      <stop offset="0" stop-color="#7DF9FF"/>
      <stop offset="1" stop-color="#9AA8FF"/>
    </linearGradient>
  </defs>
  <rect width="512" height="512" rx="96" fill="url(#bg)"/>
  <g opacity="0.85" transform="translate(96,96)">
    <circle cx="0" cy="0" r="14" fill="url(#mark)"/>
    <circle cx="80" cy="0" r="14" fill="url(#mark)"/>
    <circle cx="160" cy="0" r="14" fill="url(#mark)"/>
    <circle cx="240" cy="0" r="14" fill="url(#mark)"/>
    <circle cx="320" cy="0" r="14" fill="url(#mark)"/>
    <circle cx="0" cy="80" r="14" fill="url(#mark)"/>
    <circle cx="80" cy="80" r="14" fill="url(#mark)"/>
    <circle cx="160" cy="80" r="22" fill="url(#mark2)"/>
    <circle cx="240" cy="80" r="14" fill="url(#mark)"/>
    <circle cx="320" cy="80" r="14" fill="url(#mark)"/>
    <circle cx="0" cy="160" r="14" fill="url(#mark)"/>
    <circle cx="80" cy="160" r="14" fill="url(#mark)"/>
    <circle cx="160" cy="160" r="14" fill="url(#mark)"/>
    <circle cx="240" cy="160" r="14" fill="url(#mark)"/>
    <circle cx="320" cy="160" r="14" fill="url(#mark)"/>
    <circle cx="0" cy="240" r="14" fill="url(#mark)"/>
    <circle cx="80" cy="240" r="14" fill="url(#mark)"/>
    <circle cx="160" cy="240" r="14" fill="url(#mark)"/>
    <circle cx="240" cy="240" r="14" fill="url(#mark)"/>
    <circle cx="320" cy="240" r="14" fill="url(#mark)"/>
  </g>
  <path d="M196 372 L256 196 L316 372 M218 320 L294 320"
        stroke="url(#mark2)" stroke-width="14" stroke-linecap="round" stroke-linejoin="round" fill="none"/>
</svg>